<svg xmlns="http://www.w3.org/2000/svg" width="166" height="49" fill="none"><path fill="#BDBAFA" fill-rule="evenodd" d="M0 14.13v.123l27.95 13.13L56 14.209v-.033L27.95 1 0 14.13Zm10.077.062L27.95 5.795l17.877 8.397-17.877 8.396-17.874-8.396ZM27.95 32.483 0 19.55v4.784l27.95 12.964L56 24.289v-4.784L27.95 32.484Zm0 9.703L0 29.25v4.784L27.95 47 56 33.99v-4.784l-28.05 12.98Z" clip-rule="evenodd"/><mask id="a" width="94" height="49" x="72" y="0" maskUnits="userSpaceOnUse" style="mask-type:luminance"><path fill="#fff" fill-rule="evenodd" d="M72.014.03h93.961v48.29H72.014V.03Z" clip-rule="evenodd"/></mask><g mask="url(#a)"><path fill="#000" fill-rule="evenodd" d="M159.559 24.152a8.105 8.105 0 0 0-2.16-5.573 7.265 7.265 0 0 0-2.339-1.672 6.866 6.866 0 0 0-2.852-.602c-1.01 0-1.96.2-2.851.602a7.254 7.254 0 0 0-2.339 1.672 8.036 8.036 0 0 0-1.582 2.497 8.105 8.105 0 0 0-.579 3.076c0 1.1.193 2.126.579 3.077a8.037 8.037 0 0 0 1.582 2.497 7.256 7.256 0 0 0 2.339 1.672 6.861 6.861 0 0 0 2.851.602c1.01 0 1.961-.2 2.852-.602a7.267 7.267 0 0 0 2.339-1.672 8.105 8.105 0 0 0 2.16-5.574Zm6.416 0c0 1.932-.357 3.723-1.069 5.373a13.092 13.092 0 0 1-2.941 4.28c-1.247 1.205-2.71 2.156-4.388 2.854-1.678.699-3.468 1.048-5.369 1.048-1.901 0-3.683-.349-5.346-1.048a13.858 13.858 0 0 1-4.366-2.876 13.347 13.347 0 0 1-2.941-4.303c-.712-1.65-1.069-3.425-1.069-5.328 0-1.873.364-3.634 1.092-5.284a13.915 13.915 0 0 1 2.962-4.325 13.673 13.673 0 0 1 4.367-2.898 13.547 13.547 0 0 1 5.301-1.048c1.901 0 3.691.35 5.369 1.048 1.678.699 3.141 1.65 4.388 2.854 1.248 1.204 2.228 2.638 2.941 4.303.712 1.664 1.069 3.448 1.069 5.35Zm-29.717 12.753a8.568 8.568 0 0 1-1.715.58 8.711 8.711 0 0 1-1.982.222 9.838 9.838 0 0 1-2.74-.379 6.011 6.011 0 0 1-2.295-1.226c-.653-.565-1.173-1.3-1.559-2.207-.386-.907-.579-2-.579-3.277V.029h6.549v29.474c0 1.07.215 1.806.646 2.207.431.401.943.602 1.537.602.742 0 1.455-.223 2.138-.669v5.262ZM122.492 11.22l-11.584 30.633c-.861 2.289-1.99 3.939-3.386 4.95-1.396 1.01-3.059 1.515-4.99 1.515a7.95 7.95 0 0 1-.98-.067 7.378 7.378 0 0 1-1.025-.2l-2.138-5.975a8.49 8.49 0 0 0 1.56.557c.534.134 1.039.201 1.514.201 1.01 0 1.931-.23 2.762-.691.832-.46 1.471-1.316 1.916-2.564l.891-2.586-9.935-25.773h6.995l5.925 16.587 5.569-16.587h6.906ZM95.538 7.342H78.786v8.294h16.529v5.618h-16.53v15.784h-6.771V1.413h23.524v5.93Z" clip-rule="evenodd"/></g></svg>